<?xml version="1.0" encoding="utf-8"?>
<!-- Generator: Adobe Illustrator 21.0.2, SVG Export Plug-In . SVG Version: 6.00 Build 0)  -->
<svg version="1.1" id="Layer_1" xmlns="http://www.w3.org/2000/svg" xmlns:xlink="http://www.w3.org/1999/xlink" x="0px" y="0px"
	 viewBox="0 0 589.2 100.5" style="enable-background:new 0 0 589.2 100.5;" xml:space="preserve">
<style type="text/css">
	.st0{fill:#E62117;}
</style>
<g>
	<g>
		<path class="st0" d="M39.9,14.2c-6.3,0-11.2,1.3-14.8,3.8c-3.6,2.5-5.4,6-5.4,10.6c0,3.8,1.6,6.7,4.8,8.7c3.2,2,8.7,3.9,16.4,5.7
			c8.2,1.8,14.8,3.9,19.9,6.1c5.1,2.3,9,5.1,11.7,8.6c2.7,3.5,4.1,7.9,4.1,13.1c0,5.7-1.6,10.7-4.8,15.1c-3.2,4.4-7.6,7.8-13.4,10.2
			c-5.7,2.4-12.3,3.7-19.8,3.7c-7.1,0-13.8-0.9-20.1-2.8C12.3,95,7.1,92.5,3.2,89.3C1.1,87.7,0,85.5,0,82.6c0-1.9,0.6-3.6,1.7-5
			c1.1-1.4,2.5-2.1,4.1-2.1c1.7,0,3.5,0.6,5.7,1.9c4,2.9,8.1,4.9,12.4,6.2c4.3,1.3,9.1,1.9,14.3,1.9c6.7,0,11.9-1.2,15.5-3.5
			c3.6-2.3,5.4-5.8,5.4-10.3c0-3.5-1.7-6.2-5-8.1c-3.4-1.9-8.9-3.7-16.8-5.4c-8.1-1.7-14.7-3.8-19.7-6.1c-5.1-2.3-8.9-5.2-11.4-8.8
			c-2.6-3.6-3.9-8.1-3.9-13.7C2.2,24,3.8,18.9,7,14.3c3.2-4.5,7.7-8,13.4-10.6C26.2,1.3,32.7,0,39.9,0C53,0,63.7,3.5,72,10.5
			c1.2,1,2,2,2.6,3c0.5,1,0.8,2.2,0.8,3.7c0,1.9-0.6,3.6-1.7,5c-1.2,1.4-2.5,2.1-4.1,2.1c-0.9,0-1.8-0.1-2.6-0.4
			c-0.8-0.3-1.8-0.8-3.1-1.5c-3.8-2.8-7.4-4.8-11-6.1C49.4,14.9,45,14.2,39.9,14.2L39.9,14.2z"/>
		<path class="st0" d="M146.2,92.7c0,2.2-0.9,3.9-2.7,5c-1.8,1.1-4.3,1.6-7.7,1.4l-3.7-0.3c-15.4-1.1-23.2-9.4-23.2-24.8V44h-6.9
			c-2.5,0-4.4-0.6-5.7-1.7s-2-2.7-2-4.8c0-2.1,0.7-3.7,2-4.8s3.2-1.7,5.7-1.7h6.9V18.3c0-2.5,0.8-4.5,2.3-5.9
			c1.6-1.5,3.7-2.2,6.3-2.2c2.6,0,4.6,0.7,6.2,2.2c1.6,1.5,2.3,3.4,2.3,5.9V31h11.7c2.5,0,4.4,0.6,5.7,1.7c1.3,1.1,2,2.7,2,4.8
			c0,2.1-0.7,3.7-2,4.8c-1.3,1.1-3.2,1.7-5.7,1.7h-11.7v31.3c0,6.8,3.1,10.4,9.4,10.9l3.7,0.3C143.9,86.8,146.2,88.8,146.2,92.7z"/>
		<path class="st0" d="M212.3,31.2c1.4,1.2,2.1,3,2.1,5.4c0,2.5-0.6,4.3-1.8,5.5c-1.2,1.2-3.4,2-6.5,2.3l-4.1,0.4
			c-5.4,0.6-9.4,2.4-11.9,5.5c-2.5,3.1-3.8,7-3.8,11.7v29c0,2.7-0.8,4.7-2.5,6.1c-1.7,1.4-3.7,2.1-6.2,2.1c-2.5,0-4.5-0.7-6.1-2.1
			c-1.6-1.4-2.4-3.5-2.4-6.1V37.7c0-2.6,0.8-4.6,2.4-5.9c1.6-1.4,3.6-2.1,6-2.1c2.4,0,4.3,0.7,5.8,2c1.5,1.3,2.2,3.2,2.2,5.7v5.5
			c1.7-4,4.3-7.2,7.8-9.4s7.3-3.4,11.5-3.7l1.9-0.1C209,29.5,210.9,30,212.3,31.2z"/>
		<path class="st0" d="M291.4,81.8c1,1.2,1.4,2.8,1.4,4.8c0,2.9-1.7,5.2-5.1,7.2c-3.1,1.7-6.7,3.2-10.6,4.2c-4,1.1-7.7,1.6-11.3,1.6
			c-10.9,0-19.5-3.1-25.8-9.4c-6.3-6.3-9.5-14.8-9.5-25.7c0-6.9,1.4-13,4.1-18.3c2.8-5.3,6.6-9.5,11.7-12.4c5-2.9,10.7-4.4,17-4.4
			c6.1,0,11.4,1.3,15.9,4c4.5,2.7,8,6.4,10.5,11.3c2.5,4.9,3.7,10.6,3.7,17.2c0,4-1.7,5.9-5.2,5.9h-40.7c0.6,6.3,2.3,11,5.4,14
			c3,3,7.4,4.5,13.2,4.5c2.9,0,5.5-0.4,7.8-1.1c2.3-0.7,4.8-1.7,7.7-3c2.8-1.5,4.8-2.2,6.1-2.2C289.2,80,290.4,80.6,291.4,81.8z
			 M252.5,45.9c-2.8,2.9-4.5,7.2-5,12.7h31.2c-0.2-5.6-1.6-9.9-4.1-12.8c-2.6-2.9-6.2-4.3-10.8-4.3C259.1,41.5,255.3,43,252.5,45.9z
			"/>
		<path class="st0" d="M371.4,36.3c4.6,4.6,6.8,11.7,6.8,21.2v33.7c0,2.5-0.7,4.4-2.2,5.9c-1.5,1.4-3.5,2.1-6.1,2.1
			c-2.4,0-4.3-0.7-5.9-2.2c-1.5-1.5-2.3-3.4-2.3-5.8v-3c-1.6,3.6-4,6.4-7.4,8.4c-3.4,2-7.2,3-11.7,3c-4.5,0-8.6-0.9-12.3-2.8
			c-3.7-1.8-6.6-4.4-8.7-7.6c-2.1-3.2-3.2-6.8-3.2-10.8c0-5,1.3-8.9,3.8-11.7c2.5-2.8,6.6-4.9,12.3-6.2c5.7-1.3,13.6-1.9,23.6-1.9
			h3.4v-3.2c0-4.5-1-7.8-2.9-9.9s-5.1-3.1-9.4-3.1c-2.7,0-5.4,0.4-8.1,1.2c-2.8,0.8-6,1.9-9.8,3.4c-2.4,1.2-4.1,1.8-5.2,1.8
			c-1.7,0-3-0.6-4.1-1.8c-1.1-1.2-1.6-2.8-1.6-4.7c0-1.6,0.4-2.9,1.2-4.1c0.8-1.1,2.1-2.2,3.9-3.2c3.2-1.7,7.1-3.1,11.5-4.1
			c4.5-1,8.9-1.5,13.2-1.5C359.9,29.4,366.9,31.7,371.4,36.3z M357.5,82.6c2.9-3.1,4.3-7.1,4.3-11.9v-2.9h-2.5
			c-6.2,0-10.9,0.3-14.3,0.8c-3.4,0.6-5.8,1.5-7.3,2.9c-1.5,1.4-2.2,3.3-2.2,5.7c0,2.9,1,5.4,3.1,7.2c2.1,1.9,4.6,2.8,7.7,2.8
			C350.8,87.2,354.6,85.6,357.5,82.6z"/>
		<path class="st0" d="M587.1,31.2c1.4,1.2,2.1,3,2.1,5.4c0,2.5-0.6,4.3-1.8,5.5c-1.2,1.2-3.4,2-6.5,2.3l-4.1,0.4
			c-5.4,0.6-9.4,2.4-11.9,5.5c-2.5,3.1-3.8,7-3.8,11.7v29c0,2.7-0.8,4.7-2.5,6.1s-3.7,2.1-6.2,2.1c-2.5,0-4.5-0.7-6.1-2.1
			c-1.6-1.4-2.4-3.5-2.4-6.1V37.7c0-2.6,0.8-4.6,2.4-5.9c1.6-1.4,3.6-2.1,6-2.1c2.4,0,4.3,0.7,5.8,2c1.5,1.3,2.2,3.2,2.2,5.7v5.5
			c1.7-4,4.3-7.2,7.8-9.4c3.4-2.2,7.3-3.4,11.5-3.7l1.9-0.1C583.8,29.5,585.7,30,587.1,31.2z"/>
	</g>
	<g>
		<path class="st0" d="M509.9,78.7c-0.5-5.2-1.4-10.4-2.6-15.5c-1.8-7.5-5-14.5-9.9-20.6c-5.2-6.5-11.8-8.6-19.8-6.8
			c-3.7,0.8-6.9,2.5-10,4.6c-0.4,0.3-0.7,0.5-1.1,0.7c-0.2-1.5-1-2.5-2.5-2.9c-0.7-0.2-0.8-0.5-0.8-1.1c0.1-1.3,0.2-2.7,0.5-4
			c0.7-3.1,2.5-5.3,5.5-6.5c2-0.8,4.2-1.3,6.3-1.9c1.7-0.5,3.3-1.1,4.9-2c4.4-2.5,6-6.5,5.9-11.3c0-0.9-0.5-1.7-1.2-2.3
			c-0.2-0.2-0.7-0.3-0.6-0.7h-2.9c0,0.1,0,0.2,0,0.2c-1.5,1-1.9,2.5-1.9,4.3c0,2.2-1.2,3.7-3.3,4.6c-1.5,0.6-3.1,1-4.6,1.5
			c-1.4,0.4-2.8,0.8-4.2,1.3c-6.6,2.4-10,7.4-10.7,14.2c-0.1,1-0.2,1.9-0.2,2.9c0,0.5-0.2,0.7-0.7,0.8c-1.9,0.6-2.6,1.6-2.7,3.5
			c-1.6-0.9-3.1-1.8-4.6-2.7c-5.6-3.4-11.5-4.8-17.9-3.2c-5.4,1.3-8.8,5.1-11.8,9.5c-5.7,8.5-8.5,18-10,28
			c-0.8,5.4-1.1,10.6,0.8,15.8c2.2,6.3,3.7,11.1,12.5,11.4c4,0.1,7.4-1.8,10.3-4.4c2.9-2.5,5-6.8,7.1-10c0.2-0.3,0.4-0.6,0.5-0.9
			c1.1,0.5,2.4,0.7,3.7,0.7c4.6,0,8.5-3.2,9.6-7.5c2.7,0.3,5.8,0.2,8.6-0.1c1.1,4.4,5,7.6,9.7,7.6c1,0,1.9-0.1,2.8-0.4
			c0.7,1,1.5,1.9,2.3,2.7c3,2.9,5.6,6.3,9,8.7c10.1,7.1,19.4,3.2,23-8.6C509.8,85.2,510.2,81.8,509.9,78.7z M432.9,67
			c-1.2,0.5-3,0.3-3.5-0.6c-0.4-0.6-0.4-1.4-0.5-2.2c-0.1-1.2,0-2.4,0-3.9c-1.5,0-3,0-4.5,0c-1.2,0-2-0.7-2.1-1.9c0-0.5,0-0.9,0-1.4
			c0.1-1.3,0.8-1.9,2.1-2c1.5,0,2.9,0,4.6,0c0-1.6,0-3,0-4.4c0-1.8,0.7-2.5,2.6-2.5c1.9,0,2.6,0.6,2.6,2.5c0,1.4,0,2.8,0,4.3
			c1.5,0,2.9,0,4.2,0c1.9,0,2.5,0.8,2.4,3.1c0,1.7-0.7,2.2-2.5,2.2c-1.3,0-2.6,0.1-4.1,0.2c0,1.2-0.1,2.6,0,4
			C434.3,65.7,434,66.5,432.9,67z M449.5,77.5c-0.7,2.5-3,4.3-5.7,4.3c-0.6,0-1.1-0.1-1.7-0.2c-2.5-0.7-4.3-3-4.3-5.7
			c0-3.3,2.7-5.9,5.9-5.9c3.3,0,5.9,2.7,5.9,5.9C449.8,76.4,449.7,77,449.5,77.5z M457.5,70.3h-3c-0.5,0-1-0.4-1-1c0-0.5,0.4-1,1-1
			h3c0.5,0,1,0.4,1,1C458.5,69.8,458,70.3,457.5,70.3z M463.8,70.3h-0.3h-2.7c-0.5,0-1-0.4-1-1c0-0.5,0.4-1,1-1h3
			c0.4,0,0.7,0.2,0.9,0.6c0.1,0.1,0.1,0.3,0.1,0.4C464.8,69.8,464.4,70.3,463.8,70.3z M483.5,47.6c1.7,0,3.2,1.4,3.3,3.2
			c0.1,1.7-1.4,3.3-3.1,3.3c-1.8,0-3.2-1.4-3.2-3.3C480.4,49.2,482,47.6,483.5,47.6z M472.5,81.7c-0.3,0-0.5,0.1-0.8,0.1
			c-2.7,0-5-1.8-5.7-4.3c-0.2-0.5-0.2-1.1-0.2-1.7c0-3.3,2.7-5.9,5.9-5.9c3.3,0,5.9,2.7,5.9,5.9C477.7,78.9,475.5,81.4,472.5,81.7z
			 M477.6,61c-1.7,0-3.1-1.5-3-3.3c0-1.8,1.4-3.2,3.2-3.2c1.7,0,3.1,1.4,3.1,3C480.8,59.6,479.5,61,477.6,61z M483.5,67.9
			c-1.7-0.1-3.3-1.7-3.1-3.4c0.1-1.8,1.6-3.1,3.4-3c1.8,0.1,3.2,1.5,3.1,3.4C486.8,66.5,485.2,67.9,483.5,67.9z M489.8,60.9
			c-2,0-3.4-1.3-3.4-3.2c0-1.8,1.4-3.2,3.1-3.2c1.7,0,3.2,1.5,3.2,3.3C492.7,59.4,491.3,61,489.8,60.9z"/>
	</g>
</g>
</svg>
