<?xml version="1.0" encoding="utf-8"?>
<!-- Generator: Adobe Illustrator 21.0.2, SVG Export Plug-In . SVG Version: 6.00 Build 0)  -->
<svg version="1.1" id="Layer_1" xmlns="http://www.w3.org/2000/svg" xmlns:xlink="http://www.w3.org/1999/xlink" x="0px" y="0px"
	 viewBox="0 0 1004 120.7" style="enable-background:new 0 0 1004 120.7;" xml:space="preserve">
<style type="text/css">
	.st0{fill:#E62117;}
</style>
<g>
	<path class="st0" d="M17.2,120.7v-17.2H0V86.2h34.5v17.2h51.7V69h-69V51.7H0V17.2h17.2V0h86.2v17.2h17.2v17.2H86.2V17.2H34.5v34.5
		h69V69h17.2v34.5h-17.2v17.2H17.2z"/>
	<path class="st0" d="M178.2,120.7v-69h-34.5V34.5h34.5V0h34.5v34.5h34.5v17.2h-34.5v69H178.2z"/>
	<path class="st0" d="M316.9,51.7h17.2V69h-17.2v51.7h-34.5V34.5h34.5V51.7z M385.9,34.5v17.2h-51.7V34.5H385.9z"/>
	<path class="st0" d="M426.8,120.7v-17.2h-17.2V51.7h17.2V34.5H513v17.2h17.2v34.5h-86.2v17.2h69v17.2H426.8z M444.1,69h51.7V51.7
		h-51.7V69z"/>
	<path class="st0" d="M578.6,120.7v-17.2h-17.2V86.2h17.2V69h69V51.7h-69V34.5h86.2v17.2H682v69H578.6z M595.8,103.5h51.7V86.2
		h-51.7V103.5z"/>
	<path class="st0" d="M935,51.7h17.2V69H935v51.7h-34.5V34.5H935V51.7z M1004,34.5v17.2h-51.7V34.5H1004z"/>
	<path class="st0" d="M855.8,65.8V46.7h-21.1V29.4h-27.4v17.1h-15.7h-0.7h-18.8V29.4h-27.4v17.3h-18v19.1h-8.5v36.6h8.5v18.3H752
		V101h19.7v-9.3h19.3h0.7h19.3v9.3h19.7v19.7h25.2v-18.3h8.5V65.8H855.8z M769.9,76.3h-9.1v10.2h-13.5V76.3h-9.1V65h9.1V54.8h13.5
		V65h9.1V76.3z M827.4,67.2h-2.9v2.9H813v-2.9h-2.9V55.7h2.9v-2.9h11.5v2.9h2.9V67.2z M847.9,85.5H845v2.9h-11.5v-2.9h-2.9V73.9h2.9
		V71H845v2.9h2.9V85.5z"/>
</g>
</svg>
